<svg width="251" height="160" viewBox="0 0 251 160" fill="none" xmlns="http://www.w3.org/2000/svg">
<path d="M93.2012 56.8663L73.5366 88.5472V109.859C75.8003 114.986 81.5215 115.669 87.0046 115.898V118.861H48.5076V115.898C53.9902 115.669 60.6645 114.873 62.452 111.454V89.4588L42.4291 57.0937C38.9734 51.6236 35.6362 49.801 28.9615 49.3447V46.3819H62.4524V49.3447C56.1353 49.6862 54.1095 50.8268 52.322 52.1948L70.9146 82.9629L89.1497 52.3078C87.2428 50.9405 84.7402 49.6862 78.4234 49.345V46.3823H107.027V49.345C100.591 49.5732 96.5387 51.6236 93.2012 56.8663ZM132.293 119.886C125.858 119.886 122.759 115.669 122.52 112.708C118.468 116.81 113.225 119.886 108.219 119.886C101.783 119.886 96.2997 116.125 96.2997 109.631C96.2997 106.439 97.1342 103.134 98.8032 100.514L122.52 92.3082V83.8749C122.52 78.747 120.017 73.8465 114.654 73.8465C111.436 73.8465 108.337 77.6064 108.099 83.4193L97.3721 85.1277V83.9894C100.947 73.7317 112.747 69.744 118.467 69.744C129.313 69.744 133.246 75.2134 133.127 83.6467L132.77 107.578C132.651 112.251 135.272 113.39 137.657 113.39C139.563 113.39 141.47 112.251 143.735 110.086V113.39C141.113 116.354 136.466 119.886 132.293 119.886ZM108.457 101.311C107.98 103.134 107.623 104.73 107.623 107.237C107.623 110.655 109.649 114.074 113.582 114.074C117.157 114.074 119.183 112.935 122.402 110.542L122.52 95.156C119.422 96.5237 111.795 99.7157 108.457 101.311ZM144.808 118.861V116.239C150.171 115.898 151.72 114.758 152.675 112.82V53.7884C152.675 49.9137 152.078 48.3189 143.854 47.6348V45.3559L165.666 40.1135L166.38 42.052L162.924 46.1541V112.82C164.116 115.1 166.38 115.898 171.267 116.24V118.861H144.808V118.861ZM199.87 119.772C187.356 119.772 177.702 110.314 177.702 97.0941C177.702 80.9114 188.072 69.857 202.731 69.857C214.53 69.857 221.085 76.2403 221.085 86.382V88.4331L188.906 88.2056C188.668 89.4588 188.548 91.511 188.548 94.0173C188.548 105.641 196.176 113.276 206.307 113.276C212.385 113.276 215.484 111.225 220.251 107.351L222.038 109.971C215.246 115.898 209.644 119.772 199.87 119.772ZM200.944 73.3909C194.984 73.3909 190.814 77.9487 189.383 85.1277L210.36 84.9003C210.36 78.8604 206.426 73.3909 200.944 73.3909Z" fill="#AD8B3A"/>
</svg>
